<?xml version="1.0" encoding="utf-8"?>
<!-- Generator: Adobe Illustrator 18.1.1, SVG Export Plug-In . SVG Version: 6.00 Build 0)  -->
<svg version="1.1" xmlns="http://www.w3.org/2000/svg" xmlns:xlink="http://www.w3.org/1999/xlink" x="0px" y="0px"
	 viewBox="0 0 398.6 82.6" enable-background="new 0 0 398.6 82.6" xml:space="preserve">
<g id="Layer_2" display="none">
	<rect x="-90" y="-56" display="inline" stroke="#FFFFFF" stroke-miterlimit="10" width="574" height="238"/>
</g>
<g id="Layer_1">
	<path id="XMLID_86_" fill="#FAFBFB" d="M133.5,12c5.4,0,10.8,1.5,13.1,2.7c0.6,0.3,1.1,0.7,1.1,1.7v8.9c0,0.7-0.7,1.1-1.3,0.8
		c-4.1-1.8-6.9-2.8-11.5-2.8h-0.4c-8.3,0-14,5.7-14,15.4v7.5c0,9.7,5.7,15.4,14,15.4h0.4c4.8,0,8-1.2,11.5-2.8
		c0.7-0.3,1.3,0.1,1.3,0.8v9c0,0.8-0.3,1.3-1.1,1.7c-2.2,1.2-7.9,2.6-13.1,2.6h-1.2c-13.1,0-25.3-9.3-25.3-26.8v-7.6
		c0-17.5,12.2-26.8,25.3-26.8H133.5z"/>
	<path id="XMLID_83_" fill="#FAFBFB" d="M181.9,12c12.4,0,23.7,8.3,23.7,25v11.1c0,16.7-11.3,25-23.7,25h-1.3
		c-12.4,0-23.7-8.3-23.7-25V37c0-16.7,11.3-25,23.7-25H181.9z M181,23.4c-6.6,0-10.5,4.5-10.5,12.5v13.4c0,8,3.9,12.5,10.5,12.5h0.7
		c6.6,0,10.5-4.4,10.5-12.5V35.9c0-8-3.9-12.5-10.5-12.5H181z"/>
	<path id="XMLID_80_" fill="#FAFBFB" d="M237,14c11.9,0,20.1,5.3,20.1,17.4v0.8c0,8.2-4,14.1-10.7,16.9l5.8,8.4l8.2,14.2
		c0.4,0.7-0.1,1.3-0.8,1.3h-12.3c-0.6,0-1.1-0.3-1.4-0.9l-12-20.9h-6.7v20.7c0,0.7-0.4,1.1-1.1,1.1h-10.9c-0.7,0-1.1-0.4-1.1-1.1
		V15.1c0-0.7,0.4-1.1,1.1-1.1H237z M227.1,40.7h7.7c6.4,0,8.8-3.1,8.8-7.6v-0.5c0-4.6-2.3-7.3-8.7-7.3h-7.8V40.7z"/>
	<path id="XMLID_78_" fill="#FAFBFB" d="M303.5,37.2c0.7,0,1.1,0.4,1.1,1.1v9.2c0,0.7-0.4,1.1-1.1,1.1h-21.3v12.9h23.7
		c0.7,0,1.1,0.4,1.1,1.1v9.2c0,0.7-0.4,1.1-1.1,1.1h-35.7c-0.7,0-1.1-0.4-1.1-1.1V15.1c0-0.7,0.4-1.1,1.1-1.1h35.7
		c0.7,0,1.1,0.4,1.1,1.1v9.2c0,0.7-0.4,1.1-1.1,1.1h-23.7v11.9L303.5,37.2z"/>
	<path id="XMLID_76_" fill="#FAFBFB" d="M339,14c0.7,0,1.1,0.4,1.1,1.1v56.7c0,0.7-0.4,1.1-1.1,1.1h-10.9c-0.7,0-1.1-0.4-1.1-1.1
		V15.1c0-0.7,0.4-1.1,1.1-1.1H339z"/>
	<path id="XMLID_58_" fill="#FAFBFB" d="M374.9,12c12.4,0,23.7,8.3,23.7,25v11.1c0,16.7-11.3,25-23.7,25h-1.3
		c-12.4,0-23.7-8.3-23.7-25V37c0-16.7,11.3-25,23.7-25H374.9z M374,23.4c-6.6,0-10.5,4.5-10.5,12.5v13.4c0,8,3.9,12.5,10.5,12.5h0.7
		c6.6,0,10.5-4.4,10.5-12.5V35.9c0-8-3.9-12.5-10.5-12.5H374z"/>
	<path fill="#FAFBFB" d="M41.3,0C18.5,0,0,18.5,0,41.3c0,22.8,18.5,41.3,41.3,41.3c22.8,0,41.3-18.5,41.3-41.3
		C82.6,18.5,64.1,0,41.3,0z M38.2,52.4l11.3,0l5.6,9.8l-5.6,9.8H38.2l-5.6-9.8H21.3l-5.6-9.8l5.6-9.8l-5.6-9.8l5.6-9.8h11.3l5.6-9.8
		l11.3,0l5.6,9.8l-5.6,9.8H38.2l-5.6,9.8L38.2,52.4z"/>
</g>
</svg>
